# xmcd CD database file generated by MAGIX-FreeDB-Music_Manager_2007 v2.0beta1
# 
# Track frame offsets:
#      150
#      13630
#      28938
#      43671
#      59483
#      76948
#      92110
#      108462
#      125534
#      140076
#      155356
# 
# Disc length: 2272 seconds
# 
# Revision: 1 
# Processed by: cddbd v1.5.2PL0 Copyright (c) Steve Scherf et al.
# Submitted via: MAGIX-FreeDB-Music_Manager_2007 v2.0beta1
# 
DISCID=9308de0b
DTITLE=I Mantini - i Capatoghji
DYEAR=1900
DGENRE=Ethnic
TTITLE0=I Mantini - I scurnaghjoni
TTITLE1=I Mantini - I MANTINI
TTITLE2=I Mantini - Lucia
TTITLE3=I Mantini - Reveni
TTITLE4=I Mantini - Torna una volta
TTITLE5=I Mantini - Les mendiants de la tradition
TTITLE6=I Mantini - Per te o ma
TTITLE7=I Mantini - Terra d'incantu
TTITLE8=I Mantini - La DDE
TTITLE9=I Mantini - Ci Aghju vistu
TTITLE10=I Mantini - A mio liberta
EXTD=
EXTT0=
EXTT1=
EXTT2=
EXTT3=
EXTT4=
EXTT5=
EXTT6=
EXTT7=
EXTT8=
EXTT9=
EXTT10=
PLAYORDER=
